<?xml version="1.0" encoding="UTF-8"?>
<svg xmlns="http://www.w3.org/2000/svg" xmlns:xlink="http://www.w3.org/1999/xlink" width="25px" height="25px" viewBox="0 0 25 25" version="1.1">
<g id="surface1">
<path style=" stroke:none;fill-rule:nonzero;fill:rgb(80%,0%,0%);fill-opacity:1;" d="M 17.96875 0 L 7.03125 0 C 3.125 0 0 3.125 0 7.03125 L 0 17.96875 C 0 21.875 3.125 25 7.03125 25 L 17.96875 25 C 21.875 25 25 21.875 25 17.96875 L 25 7.03125 C 25 3.125 21.875 0 17.96875 0 Z M 12.5 7.8125 C 15.078125 7.8125 17.1875 9.921875 17.1875 12.5 C 17.1875 15.078125 15.078125 17.1875 12.5 17.1875 C 9.921875 17.1875 7.8125 15.078125 7.8125 12.5 C 7.8125 9.921875 9.921875 7.8125 12.5 7.8125 Z M 17.1875 5.46875 C 17.1875 4.609375 17.890625 3.90625 18.75 3.90625 C 19.609375 3.90625 20.3125 4.609375 20.3125 5.46875 C 20.3125 6.328125 19.609375 7.03125 18.75 7.03125 C 17.890625 7.03125 17.1875 6.328125 17.1875 5.46875 Z M 17.1875 5.46875 "/>
</g>
</svg>
